<svg width="20" height="18" viewBox="0 0 20 18" fill="none" xmlns="http://www.w3.org/2000/svg">
<path d="M14 18C13.45 18 12.979 17.804 12.587 17.412C12.195 17.02 11.9993 16.5493 12 16V12C12 11.45 12.196 10.979 12.588 10.587C12.98 10.195 13.4507 9.99934 14 10H18C18.55 10 19.021 10.196 19.413 10.588C19.805 10.98 20.0007 11.4507 20 12V16C20 16.55 19.804 17.021 19.412 17.413C19.02 17.805 18.5493 18.0007 18 18H14ZM14 16H18V12H14V16ZM0 15V13H9V15H0ZM14 8C13.45 8 12.979 7.804 12.587 7.412C12.195 7.02 11.9993 6.54934 12 6V2C12 1.45 12.196 0.979002 12.588 0.587002C12.98 0.195002 13.4507 -0.000664969 14 1.69779e-06H18C18.55 1.69779e-06 19.021 0.196002 19.413 0.588002C19.805 0.980002 20.0007 1.45067 20 2V6C20 6.55 19.804 7.021 19.412 7.413C19.02 7.805 18.5493 8.00067 18 8H14ZM14 6H18V2H14V6ZM0 5V3H9V5H0Z" fill="black"/>
</svg>
