<svg width="22" height="22" viewBox="0 0 22 22" fill="none" xmlns="http://www.w3.org/2000/svg">
<path fill-rule="evenodd" clip-rule="evenodd" d="M3.47998 0.600098H3.39998C3.03358 0.600098 2.71838 0.600098 2.43998 0.665698C2.00899 0.768681 1.61494 0.988972 1.30146 1.30216C0.987993 1.61535 0.767348 2.00921 0.663976 2.4401C0.599976 2.7185 0.599976 3.0321 0.599976 3.4001V7.4001C0.599976 7.7665 0.599976 8.0817 0.665576 8.3601C0.768559 8.79108 0.98885 9.18514 1.30204 9.49861C1.61523 9.81208 2.00909 10.0327 2.43998 10.1361C2.71838 10.2001 3.03198 10.2001 3.39998 10.2001H7.39998C7.76638 10.2001 8.08158 10.2001 8.35998 10.1345C8.79096 10.0315 9.18502 9.81122 9.49849 9.49803C9.81196 9.18485 10.0326 8.79099 10.136 8.3601C10.2 8.0817 10.2 7.7681 10.2 7.4001V3.4001C10.2 3.0337 10.2 2.7185 10.1344 2.4401C10.0314 2.00912 9.8111 1.61506 9.49791 1.30159C9.18472 0.988115 8.79087 0.76747 8.35998 0.664098C8.08158 0.600098 7.76798 0.600098 7.39998 0.600098H3.47998ZM2.81278 2.2225C2.88158 2.2065 2.98878 2.2001 3.47998 2.2001H7.31998C7.81278 2.2001 7.91838 2.2049 7.98718 2.2225C8.1309 2.25687 8.2623 2.33038 8.3668 2.43487C8.4713 2.53937 8.54481 2.67077 8.57918 2.8145C8.59518 2.8817 8.59998 2.9873 8.59998 3.4801V7.3201C8.59998 7.8129 8.59518 7.9185 8.57758 7.9873C8.54321 8.13103 8.4697 8.26242 8.3652 8.36692C8.2607 8.47142 8.1293 8.54493 7.98558 8.5793C7.91998 8.5937 7.81438 8.6001 7.31998 8.6001H3.47998C2.98718 8.6001 2.88158 8.5953 2.81278 8.5777C2.66905 8.54333 2.53765 8.46982 2.43315 8.36532C2.32866 8.26082 2.25515 8.12943 2.22078 7.9857C2.20638 7.9201 2.19998 7.8145 2.19998 7.3201V3.4801C2.19998 2.9873 2.20478 2.8817 2.22238 2.8129C2.25675 2.66917 2.33026 2.53777 2.43475 2.43327C2.53925 2.32878 2.67065 2.25527 2.81438 2.2209L2.81278 2.2225ZM14.68 0.600098H14.6C14.2336 0.600098 13.9184 0.600098 13.64 0.665698C13.209 0.768681 12.8149 0.988972 12.5015 1.30216C12.188 1.61535 11.9673 2.00921 11.864 2.4401C11.8 2.7185 11.8 3.0321 11.8 3.4001V7.4001C11.8 7.7665 11.8 8.0817 11.8656 8.3601C11.9686 8.79108 12.1889 9.18514 12.502 9.49861C12.8152 9.81208 13.2091 10.0327 13.64 10.1361C13.9184 10.2001 14.232 10.2001 14.6 10.2001H18.6C18.9664 10.2001 19.2816 10.2001 19.56 10.1345C19.991 10.0315 20.385 9.81122 20.6985 9.49803C21.012 9.18485 21.2326 8.79099 21.336 8.3601C21.4 8.0817 21.4 7.7681 21.4 7.4001V3.4001C21.4 3.0337 21.4 2.7185 21.3344 2.4401C21.2314 2.00912 21.0111 1.61506 20.6979 1.30159C20.3847 0.988115 19.9909 0.76747 19.56 0.664098C19.2816 0.600098 18.968 0.600098 18.6 0.600098H14.68ZM14.0128 2.2225C14.0816 2.2065 14.1888 2.2001 14.68 2.2001H18.52C19.0128 2.2001 19.1184 2.2049 19.1872 2.2225C19.3309 2.25687 19.4623 2.33038 19.5668 2.43487C19.6713 2.53937 19.7448 2.67077 19.7792 2.8145C19.7952 2.8817 19.8 2.9873 19.8 3.4801V7.3201C19.8 7.8129 19.7936 7.9185 19.7776 7.9873C19.7432 8.13103 19.6697 8.26242 19.5652 8.36692C19.4607 8.47142 19.3293 8.54493 19.1856 8.5793C19.1184 8.5953 19.0128 8.6001 18.52 8.6001H14.68C14.1872 8.6001 14.0816 8.5953 14.0128 8.5777C13.869 8.54333 13.7377 8.46982 13.6332 8.36532C13.5287 8.26082 13.4551 8.12943 13.4208 7.9857C13.4064 7.9201 13.4 7.8145 13.4 7.3201V3.4801C13.4 2.9873 13.4048 2.8817 13.4224 2.8129C13.4567 2.66917 13.5303 2.53777 13.6348 2.43327C13.7392 2.32878 13.8706 2.25527 14.0144 2.2209L14.0128 2.2225ZM3.39998 11.8001H7.39998C7.76638 11.8001 8.08158 11.8001 8.35998 11.8657C8.79096 11.9687 9.18502 12.189 9.49849 12.5022C9.81196 12.8153 10.0326 13.2092 10.136 13.6401C10.2 13.9185 10.2 14.2321 10.2 14.6001V18.6001C10.2 18.9665 10.2 19.2817 10.1344 19.5601C10.0314 19.9911 9.8111 20.3851 9.49791 20.6986C9.18472 21.0121 8.79087 21.2327 8.35998 21.3361C8.08158 21.4001 7.76798 21.4001 7.39998 21.4001H3.39998C3.03358 21.4001 2.71838 21.4001 2.43998 21.3345C2.00899 21.2315 1.61494 21.0112 1.30146 20.698C0.987993 20.3848 0.767348 19.991 0.663976 19.5601C0.599976 19.2817 0.599976 18.9681 0.599976 18.6001V14.6001C0.599976 14.2337 0.599976 13.9185 0.665576 13.6401C0.768559 13.2091 0.98885 12.8151 1.30204 12.5016C1.61523 12.1881 2.00909 11.9675 2.43998 11.8641C2.71838 11.8001 3.03198 11.8001 3.39998 11.8001ZM3.47998 13.4001C2.98718 13.4001 2.88158 13.4049 2.81278 13.4225C2.66905 13.4569 2.53765 13.5304 2.43315 13.6349C2.32866 13.7394 2.25515 13.8708 2.22078 14.0145C2.20638 14.0801 2.19998 14.1857 2.19998 14.6801V18.5201C2.19998 19.0129 2.20478 19.1185 2.22238 19.1873C2.25675 19.331 2.33026 19.4624 2.43475 19.5669C2.53925 19.6714 2.67065 19.7449 2.81438 19.7793C2.88158 19.7953 2.98718 19.8001 3.47998 19.8001H7.31998C7.81278 19.8001 7.91838 19.7937 7.98718 19.7777C8.1309 19.7433 8.2623 19.6698 8.3668 19.5653C8.4713 19.4608 8.54481 19.3294 8.57918 19.1857C8.59518 19.1185 8.59998 19.0129 8.59998 18.5201V14.6801C8.59998 14.1873 8.59518 14.0817 8.57758 14.0129C8.54321 13.8692 8.4697 13.7378 8.3652 13.6333C8.2607 13.5288 8.1293 13.4553 7.98558 13.4209C7.91998 13.4065 7.81438 13.4001 7.31998 13.4001H3.47998ZM14.68 11.8001H14.6C14.2336 11.8001 13.9184 11.8001 13.64 11.8657C13.209 11.9687 12.8149 12.189 12.5015 12.5022C12.188 12.8153 11.9673 13.2092 11.864 13.6401C11.8 13.9185 11.8 14.2321 11.8 14.6001V18.6001C11.8 18.9665 11.8 19.2817 11.8656 19.5601C11.9686 19.9911 12.1889 20.3851 12.502 20.6986C12.8152 21.0121 13.2091 21.2327 13.64 21.3361C13.9184 21.4017 14.2336 21.4017 14.6 21.4017H18.6C18.9664 21.4017 19.2816 21.4017 19.56 21.3361C19.9907 21.2329 20.3844 21.0124 20.6976 20.6993C21.0107 20.3861 21.2311 19.9924 21.3344 19.5617C21.4 19.2833 21.4 18.9681 21.4 18.6017V14.6001C21.4 14.2337 21.4 13.9185 21.3344 13.6401C21.2314 13.2091 21.0111 12.8151 20.6979 12.5016C20.3847 12.1881 19.9909 11.9675 19.56 11.8641C19.2816 11.8001 18.968 11.8001 18.6 11.8001H14.68ZM14.0128 13.4225C14.0816 13.4065 14.1888 13.4001 14.68 13.4001H18.52C19.0128 13.4001 19.1184 13.4049 19.1872 13.4225C19.3309 13.4569 19.4623 13.5304 19.5668 13.6349C19.6713 13.7394 19.7448 13.8708 19.7792 14.0145C19.7952 14.0817 19.8 14.1873 19.8 14.6801V18.5201C19.8 19.0129 19.7936 19.1185 19.7776 19.1873C19.7432 19.331 19.6697 19.4624 19.5652 19.5669C19.4607 19.6714 19.3293 19.7449 19.1856 19.7793C19.1184 19.7953 19.0128 19.8001 18.52 19.8001H14.68C14.1872 19.8001 14.0816 19.7937 14.0128 19.7777C13.869 19.7433 13.7377 19.6698 13.6332 19.5653C13.5287 19.4608 13.4551 19.3294 13.4208 19.1857C13.4064 19.1201 13.4 19.0145 13.4 18.5201V14.6801C13.4 14.1873 13.4048 14.0817 13.4224 14.0129C13.4567 13.8692 13.5303 13.7378 13.6348 13.6333C13.7392 13.5288 13.8706 13.4553 14.0144 13.4209L14.0128 13.4225Z" fill="black"/>
</svg>
