<svg width="24" height="21" viewBox="0 0 24 21" fill="none" xmlns="http://www.w3.org/2000/svg">
<path d="M19.1514 0.25H4.84866L0.75 6.39794V7.55978L9.34786 20.5H14.6521L23.25 7.55978V6.39794L19.1514 0.25ZM18.3487 1.75L21.3209 6.20833H16.3003L14.8973 1.75H18.3487ZM10.6752 1.75H13.3248L14.7277 6.20833H9.27225L10.6752 1.75ZM5.65139 1.75H9.10275L7.69973 6.20833H2.67914L5.65139 1.75ZM10.1521 19L2.64961 7.70833H7.65553L10.3037 19H10.1521ZM11.8443 19L9.19627 7.70833H14.8037L12.1555 19H11.8443ZM13.8477 19H13.6961L16.3446 7.70833H21.3504L13.8477 19Z" fill="#FF5934"/>
</svg>
