<svg width="18" height="20" viewBox="0 0 18 20" fill="none" xmlns="http://www.w3.org/2000/svg">
<path d="M8.99998 0.399902C9.15911 0.399902 9.31172 0.463117 9.42424 0.575638C9.53676 0.68816 9.59998 0.840772 9.59998 0.999902V2.7999H10.8C11.2774 2.7999 11.7352 2.98954 12.0728 3.32711C12.4103 3.66468 12.6 4.12251 12.6 4.5999V8.7999H15.6C16.0774 8.7999 16.5352 8.98954 16.8728 9.32711C17.2103 9.66468 17.4 10.1225 17.4 10.5999V17.7999C17.4 18.2773 17.2103 18.7351 16.8728 19.0727C16.5352 19.4103 16.0774 19.5999 15.6 19.5999H2.39998C1.92259 19.5999 1.46475 19.4103 1.12718 19.0727C0.789618 18.7351 0.599976 18.2773 0.599976 17.7999V10.3791C0.599993 10.0683 0.680463 9.76289 0.833553 9.49246C0.986642 9.22203 1.20714 8.99584 1.47358 8.8359L5.07358 6.6759C5.17701 6.61335 5.28634 6.5611 5.39998 6.5199V4.5999C5.39998 4.12251 5.58962 3.66468 5.92718 3.32711C6.26475 2.98954 6.72259 2.7999 7.19998 2.7999H8.39998V0.999902C8.39998 0.840772 8.46319 0.68816 8.57571 0.575638C8.68823 0.463117 8.84085 0.399902 8.99998 0.399902ZM6.59998 6.5211C7.27558 6.7635 7.79998 7.3995 7.79998 8.2191V18.3999H10.2V10.5999C10.1998 10.2275 10.3151 9.86423 10.53 9.56011C10.7449 9.256 11.0489 9.02603 11.4 8.9019V4.6011C11.4 4.44197 11.3368 4.28936 11.2242 4.17684C11.1117 4.06432 10.9591 4.0011 10.8 4.0011H7.19998C7.04085 4.0011 6.88823 4.06432 6.77571 4.17684C6.66319 4.28936 6.59998 4.44197 6.59998 4.6011V6.5211ZM12 9.9999C11.8408 9.9999 11.6882 10.0631 11.5757 10.1756C11.4632 10.2882 11.4 10.4408 11.4 10.5999V18.3999H15.6C15.7591 18.3999 15.9117 18.3367 16.0242 18.2242C16.1368 18.1116 16.2 17.959 16.2 17.7999V10.5999C16.2 10.4408 16.1368 10.2882 16.0242 10.1756C15.9117 10.0631 15.7591 9.9999 15.6 9.9999H12ZM5.69158 7.7043L2.09158 9.8643C2.00246 9.9177 1.92873 9.99333 1.87761 10.0838C1.8265 10.1742 1.79975 10.2764 1.79998 10.3803V17.7999C1.79998 17.959 1.86319 18.1116 1.97571 18.2242C2.08823 18.3367 2.24085 18.3999 2.39998 18.3999H6.59998V8.2191C6.6 8.11294 6.57185 8.00868 6.51842 7.91695C6.46498 7.82522 6.38816 7.74931 6.2958 7.69697C6.20344 7.64463 6.09885 7.61773 5.9927 7.61902C5.88655 7.62031 5.78264 7.64974 5.69158 7.7043Z" fill="black"/>
</svg>
